<svg width="20" height="20" fill="none" xmlns="http://www.w3.org/2000/svg"><g clip-path="url(#a)"><path d="M10 0c5.525 0 10 4.475 10 10a10.016 10.016 0 0 1-6.813 9.488c-.5.1-.687-.213-.687-.476 0-.337.012-1.412.012-2.75 0-.937-.312-1.537-.675-1.85 2.226-.25 4.563-1.1 4.563-4.937 0-1.1-.387-1.987-1.025-2.688.1-.25.45-1.274-.1-2.65 0 0-.838-.274-2.75 1.026a9.28 9.28 0 0 0-2.5-.338c-.85 0-1.7.112-2.5.337-1.913-1.287-2.75-1.024-2.75-1.024-.55 1.375-.2 2.4-.1 2.65-.638.7-1.025 1.6-1.025 2.687 0 3.825 2.325 4.688 4.55 4.938-.287.25-.55.687-.637 1.337-.575.262-2.013.688-2.913-.825-.188-.3-.75-1.038-1.538-1.025-.837.012-.337.475.013.662.425.238.912 1.126 1.025 1.413.2.563.85 1.638 3.362 1.175 0 .838.013 1.625.013 1.863 0 .262-.188.562-.688.474A9.994 9.994 0 0 1 0 10C0 4.475 4.475 0 10 0Z" fill="#000"/></g><defs><clipPath id="a"><path fill="#fff" d="M0 0h20v20H0z"/></clipPath></defs></svg>