<svg width="92" height="61" fill="none" xmlns="http://www.w3.org/2000/svg"><g clip-path="url(#a)"><path d="M71.484 34.182a27 27 0 0 1-6.118 0V13.62h4.14a9.2 9.2 0 0 1 9.476 9.614 10.166 10.166 0 0 1-7.498 10.948Zm17.802-14.49a19.964 19.964 0 0 0-8.188-12.88 22.08 22.08 0 0 0-12.512-3.864H5.382A3.312 3.312 0 0 0 2.3 6.214v43.608a9.2 9.2 0 0 0 9.568 8.786h42.688a13.787 13.787 0 0 0 1.932-.23 12.19 12.19 0 0 0 8.602-13.386c15.824.874 27.002-10.304 24.196-25.162" fill="#fff"/><path fill-rule="evenodd" clip-rule="evenodd" d="M68.584.648a24.38 24.38 0 0 1 13.814 4.266l.022.016a22.264 22.264 0 0 1 9.131 14.364c.02.107.03.214.034.32 1.456 8.039-.833 15.236-5.763 20.3-4.45 4.572-10.906 7.263-18.327 7.419a14.49 14.49 0 0 1-10.353 13.25c-.073.022-.147.04-.222.054a16.095 16.095 0 0 1-2.364.271H11.913A11.5 11.5 0 0 1 0 49.822V6.216l.011-.028h-.01A5.612 5.612 0 0 1 5.221.654a2.3 2.3 0 0 1 .16-.006h63.202ZM4.6 6.904v-.673a1.012 1.012 0 0 1 .885-.983h63.101a19.791 19.791 0 0 1 11.201 3.454 17.664 17.664 0 0 1 7.2 11.201c.004.117.017.235.039.354 1.272 6.733-.63 12.473-4.5 16.45-3.895 4-9.965 6.394-17.31 5.989a2.3 2.3 0 0 0-2.403 2.617 9.89 9.89 0 0 1-6.87 10.827 11.5 11.5 0 0 1-1.445.168h-42.63a6.9 6.9 0 0 1-7.268-6.54V6.904Zm67.756 9.506a6.9 6.9 0 0 0-2.779-.491l-.071.001h-1.84v16.124c1.129.035 2.26-.008 3.383-.128a7.866 7.866 0 0 0 5.647-8.428 2.293 2.293 0 0 1-.012-.359 6.9 6.9 0 0 0-4.328-6.72Zm-2.884-5.09a11.5 11.5 0 0 1 11.814 11.838 12.466 12.466 0 0 1-9.212 13.247c-.108.029-.218.05-.33.062a29.304 29.304 0 0 1-6.638 0 2.3 2.3 0 0 1-2.04-2.285V13.62a2.3 2.3 0 0 1 2.3-2.3h4.106Z" fill="#323A47"/><path d="M33.304 47.016a.874.874 0 0 0 1.104 0s10.074-9.2 14.582-14.444a9.661 9.661 0 0 0-2.622-15.686 11.822 11.822 0 0 0-12.604 3.496 11.086 11.086 0 0 0-15.87-1.334 11.179 11.179 0 0 0 .506 13.248c2.254 3.312 12.88 12.788 14.49 14.352l.414.322" fill="#FF5E5B"/></g><defs><clipPath id="a"><path fill="#fff" transform="translate(0 .648)" d="M0 0h92v60.352H0z"/></clipPath></defs></svg>