<svg width="20" height="20" fill="none" xmlns="http://www.w3.org/2000/svg"><g clip-path="url(#a)"><path d="M5.74 19.364c-.068 0-.15 0-.218-.011a3.013 3.013 0 0 1-.519-.116 3.988 3.988 0 0 1-.795-.368 9.877 9.877 0 0 1-1.36-.957 13.672 13.672 0 0 1-.611-.542l-.161-.161a1.748 1.748 0 0 1-.588-1.268c-.012-.127-.023-.253-.023-.392 0-.276.011-.576.057-.864.081-.6.277-1.13.427-1.533l.034-.104c-.046-.103-.08-.219-.126-.334a8.756 8.756 0 0 1-.415-1.936 8.713 8.713 0 0 1 .057-2.12c.023-.15.047-.3.081-.439-.276-.403-.622-.98-.841-1.648V6.56a1.904 1.904 0 0 1-.092-.922c.023-.162.057-.323.115-.496a3.86 3.86 0 0 1 .369-.784c.253-.438.564-.876.945-1.348.173-.208.345-.415.53-.6l.161-.16a1.39 1.39 0 0 1 .277-.243c.23-.173.553-.322.991-.334a5.29 5.29 0 0 1 .438-.023h.011c.289 0 .6.023.9.07.46.068.875.195 1.244.333.242-.103.496-.196.76-.288a7.987 7.987 0 0 1 1.96-.392 8.49 8.49 0 0 1 2.098.093c.161.023.322.057.484.092.541-.37 1.037-.634 1.556-.795h.011c.115-.047.369-.127.703-.127.07 0 .15 0 .22.011.172.023.333.058.518.116.322.103.6.253.795.368.438.254.887.565 1.36.957.207.173.415.357.61.542l.162.161c.08.07.162.15.22.242.207.265.368.645.38 1.176.011.184.011.38 0 .576-.024.426-.081.83-.185 1.198-.08.277-.173.554-.277.83a8.65 8.65 0 0 1 .462 1.59 8.674 8.674 0 0 1-.07 3.447c.15.219.288.426.404.634.196.345.357.703.472 1.071.046.139.15.485.08.946-.022.16-.068.31-.126.484-.207.587-.53 1.071-.818 1.475-.311.438-.669.864-1.037 1.256l-.139.138c-.08.093-.173.173-.276.254-.23.173-.553.311-.991.334a5.302 5.302 0 0 1-.439.023h-.011c-.311 0-.622-.023-.945-.08-.519-.081-.98-.243-1.395-.404a7.77 7.77 0 0 1-.668.242 8.626 8.626 0 0 1-4.115.219c-.08-.011-.172-.034-.253-.046-.6.426-1.13.703-1.683.887h-.011c-.116-.011-.37.081-.703.081ZM3.46 16.091l1.221.426c.104-.3.116-.622.046-.922 0 .023 0 .058.012.081 0 .035.012.08.012.127a1.49 1.49 0 0 0-.577-1.084l.058.047.104.103a2.354 2.354 0 0 0-.312-.265l-.564 1.487Zm11.421-.542c-.092.093-.184.185-.265.312l1.371.53v-1.28c-.126 0-.253.012-.368.046h.069c.035 0 .08-.011.127-.011-.208.011-.484.08-.738.242a1.403 1.403 0 0 0-.357.334l.046-.057.115-.116Zm-10.13-.3c.057.047.115.093.172.15.3.254.577.45.83.6.162-.08.346-.196.542-.346.058-.035.104-.08.161-.127.035-.023.058-.057.092-.08l.047-.046.714-.727.968.335c.035.011.07.023.092.034.208.07.415.115.623.162.426.08.876.115 1.314.08a5.526 5.526 0 0 0 1.233-.219 3.48 3.48 0 0 0 .576-.219 1.88 1.88 0 0 0 .265-.127c.23-.115.496-.184.76-.184.416 0 .727.15.877.23.046.024.092.047.15.058.288.115.622.254.922.3.046.011.103.011.15.023a8.05 8.05 0 0 0 .484-.61c.092-.128.184-.255.264-.381a8.973 8.973 0 0 0-.334-.53c-.034-.058-.08-.104-.127-.162-.023-.023-.034-.046-.057-.069a1.636 1.636 0 0 1-.38-1.832c.265-.83.31-1.718.16-2.57a5.44 5.44 0 0 0-.368-1.188c-.011-.034-.034-.069-.046-.103-.38-.703-.219-1.303-.08-1.59.057-.116.103-.243.15-.358.091-.22.16-.45.23-.657.023-.104.046-.207.057-.334a2.018 2.018 0 0 1-.173-.15 6.894 6.894 0 0 0-.83-.6 9.663 9.663 0 0 0-.553.346l-.172.139c-.012.011-.035.023-.047.046a1.66 1.66 0 0 1-1.751.346c-.046-.012-.093-.035-.139-.047a5.637 5.637 0 0 0-.634-.15 5.556 5.556 0 0 0-1.313-.057c-.415.035-.83.115-1.222.242-.196.058-.38.138-.565.219-.092.035-.173.08-.265.127l-.046.023a1.65 1.65 0 0 1-.807.207c-.253 0-.507-.057-.749-.173-.058-.023-.104-.046-.161-.069-.277-.115-.611-.242-.9-.276-.045-.012-.091-.012-.126-.023a2.007 2.007 0 0 1-.138.16 6.14 6.14 0 0 0-.6.842c.081.162.196.334.335.542a.87.87 0 0 0 .126.161c.023.035.058.058.081.093l.669.703-.289.922c-.023.057-.034.115-.057.172a5.827 5.827 0 0 0-.139.646c-.069.438-.08.876-.034 1.325.034.415.127.83.265 1.222.07.196.15.38.23.565l.035.069a1.697 1.697 0 0 1-.011 1.544c-.024.046-.047.092-.058.139-.046.115-.104.23-.15.345-.092.254-.207.553-.242.819 0 .011-.011.046-.011.069ZM15.595 5.108c.092.093.196.185.322.277l.565-1.487-1.221-.426c-.104.3-.116.622-.047.922v-.196c0 .173.058.461.242.738.093.126.196.242.323.345l-.057-.046-.127-.127ZM4 3.667v1.28c.127 0 .254-.012.37-.047H4.3c-.035 0-.08.012-.127.012.208-.012.484-.081.738-.242.138-.093.253-.196.357-.335l-.046.058-.104.115c.093-.092.185-.196.265-.311L4 3.667Z" fill="#000"/><path d="m7.112 10.824.08 3.262-.806-.657c-.899 1.463-1.187 2.881-.76 3.93l.15.369-.37-.162a6.854 6.854 0 0 1-2.235-1.556l-.035-.034-.012-.058a3.826 3.826 0 0 1 .081-1.29v-.012c.15-.565.369-1.13.646-1.694.172-.358.38-.715.61-1.06l-.703-.577 3.354-.46ZM12.829 9.176l-.081-3.262.807.657c.899-1.463 1.187-2.881.76-3.93l-.15-.369.37.162A6.854 6.854 0 0 1 16.77 3.99l.035.034.011.058c.046.403.023.841-.08 1.29v.012a9.265 9.265 0 0 1-.646 1.694c-.173.358-.38.715-.61 1.06l.702.577-3.353.46ZM10.823 12.783l3.262-.08-.657.806c1.464.9 2.881 1.188 3.93.761l.369-.15-.162.369a6.855 6.855 0 0 1-1.555 2.236l-.035.034-.058.012a3.824 3.824 0 0 1-1.29-.08h-.012a9.268 9.268 0 0 1-1.694-.646 8.964 8.964 0 0 1-1.06-.61l-.577.702-.46-3.354ZM9.164 7.274l-3.262.08.657-.806c-1.464-.899-2.881-1.187-3.93-.76l-.357.15.161-.37a6.855 6.855 0 0 1 1.556-2.235l.034-.035.058-.011a3.826 3.826 0 0 1 1.29.08h.012c.565.15 1.13.369 1.695.646.357.173.714.38 1.06.61l.576-.703.45 3.354Z" fill="#000"/><path d="M10.005 16.92a6.973 6.973 0 1 0 0-13.945 6.973 6.973 0 0 0 0 13.946Z" fill="#000"/><path d="M7.458 7.493a5.476 5.476 0 0 1-1.003-.588 8.037 8.037 0 0 1-1.245-1.06C4.335 4.958 3.874 4.047 4 3.298l-.265.288C3.101 4.255 2.26 5.43 2.25 5.937l.011.058c.115.392.3.784.565 1.164v.012c.346.553 1.026 1.463 3.446 2.524l-.427.806 3.262-.876-1.164-3.054-.484.922ZM12.529 12.564c.403.185.703.37 1.003.588.46.323.887.68 1.244 1.06.876.888 1.337 1.798 1.21 2.548l.266-.277c.634-.668 1.475-1.844 1.486-2.351l-.011-.058a4.013 4.013 0 0 0-.565-1.164V12.9c-.346-.554-1.026-1.464-3.446-2.524l.427-.807-3.262.876 1.175 3.02.473-.9ZM12.61 7.47c.184-.403.368-.703.587-1.002.323-.461.68-.888 1.06-1.245.888-.876 1.799-1.337 2.548-1.21l-.277-.265c-.668-.634-1.844-1.476-2.35-1.487l-.059.011c-.391.116-.783.3-1.164.565h-.011c-.553.346-1.464 1.026-2.524 3.446l-.807-.426.876 3.261 3.043-1.152-.922-.496ZM7.331 12.53a5.477 5.477 0 0 1-.588 1.003c-.322.46-.68.887-1.06 1.244-.887.876-1.798 1.337-2.547 1.21l.277.265c.668.634 1.844 1.476 2.35 1.487l.058-.011c.392-.116.784-.3 1.164-.565h.012c.553-.346 1.464-1.026 2.524-3.446l.807.426-.876-3.261-3.031 1.152.91.496Z" fill="#fff"/></g><defs><clipPath id="a"><path fill="#fff" d="M0 0h20v20H0z"/></clipPath></defs></svg>