<svg width="38" height="42" fill="none" xmlns="http://www.w3.org/2000/svg"><path d="M36.975 12.392c0 .312.021.627-.004.937-.03.361-.082.722-.149 1.08a22.563 22.563 0 0 1-.331 1.512 8.59 8.59 0 0 1-.359 1.084c-.313.767-.66 1.518-1.117 2.21-.282.427-.57.849-.864 1.266a4.126 4.126 0 0 1-.37.431c-.225.238-.442.483-.686.695-.358.322-.733.624-1.123.905-.356.25-.756.431-1.12.674-.404.268-.866.384-1.296.587-.384.18-.795.24-1.186.38-.498.18-1.021.222-1.531.331-.544.117-1.097.203-1.643.315-.449.09-.894.198-1.34.298-.254.056-.51.098-.756.173-.304.093-.6.214-.896.324-.201.072-.412.126-.604.219-.28.14-.544.315-.823.464-.457.242-.838.585-1.184.96-.292.32-.546.681-.8 1.036-.418.587-.706 1.244-.964 1.916-.254.657-.487 1.322-.725 1.986-.221.625-.43 1.252-.655 1.875-.199.541-.405 1.08-.618 1.615-.304.771-.68 1.513-1.12 2.215-.331.531-.685 1.049-1.142 1.478-.366.343-.72.704-1.17.944-.446.24-.906.448-1.4.557a6.636 6.636 0 0 1-1.807.129c-.229-.012-.455-.075-.684-.117-.137-.026-.276-.047-.409-.089-.112-.035-.215-.097-.322-.151-.302-.147-.624-.264-.9-.448a8.806 8.806 0 0 1-.96-.776c-.554-.492-.97-1.103-1.342-1.74-.252-.426-.48-.867-.681-1.319-.192-.436-.336-.893-.492-1.345a24.896 24.896 0 0 1-.34-1.063c-.092-.317-.165-.641-.243-.963-.073-.298-.15-.594-.212-.895-.112-.536-.215-1.073-.32-1.609-.047-.226-.09-.453-.133-.68-.06-.34-.114-.681-.171-1.022-.044-.254-.092-.506-.13-.76-.044-.28-.08-.56-.124-.839-.036-.242-.078-.483-.112-.725-.032-.226-.06-.452-.089-.678a70.064 70.064 0 0 1-.094-.73c-.03-.236-.055-.471-.082-.707l-.096-.818c-.011-.098-.023-.193-.03-.291-.034-.401-.068-.804-.1-1.208-.021-.25-.038-.5-.05-.75-.021-.39-.042-.777-.05-1.166-.015-.64-.024-1.28-.026-1.919 0-.378.002-.755.027-1.13.026-.392.08-.784.122-1.176.034-.312.064-.622.105-.934.023-.175.064-.348.1-.52.092-.432.176-.863.281-1.292.076-.31.181-.61.266-.916.157-.571.393-1.11.624-1.653.105-.25.235-.49.367-.725.186-.329.366-.66.576-.97.259-.378.533-.744.823-1.098a12.9 12.9 0 0 1 .873-.965c.24-.24.512-.448.77-.665.254-.212.501-.433.77-.624.412-.296.835-.576 1.263-.849.249-.158.514-.294.774-.434.405-.219.81-.44 1.22-.648.26-.13.527-.244.794-.354.683-.277 1.364-.557 2.055-.816.46-.17.932-.303 1.399-.452.24-.077.475-.161.717-.229.2-.056.402-.086.604-.133.22-.05.434-.119.656-.16.299-.059.603-.1.907-.147.34-.052.679-.105 1.02-.152.139-.019.283-.02.425-.03.47-.026.944-.054 1.414-.077.188-.01.382-.051.565-.019.443.08.889.017 1.332.05.428.03.853.076 1.278.127.306.038.608.103.914.15.268.04.535.065.802.107.215.035.43.081.645.128.46.103.919.196 1.374.317.404.11.797.275 1.204.37.469.113.899.332 1.351.479.462.149.86.424 1.3.608.515.217.96.546 1.418.858.347.238.685.492 1 .77.467.41.92.836 1.356 1.28.258.26.478.564.713.85.38.464.658.993.928 1.523.215.424.393.874.537 1.329.12.373.156.774.245 1.156.098.42.096.844.073 1.27l-.012.008Z" fill="#fff"/></svg>