<svg width="49" height="58" fill="none" xmlns="http://www.w3.org/2000/svg"><path fill-rule="evenodd" clip-rule="evenodd" d="M18.146 14.931a2.203 2.203 0 0 1 2.176-1.86h13.799c1.635 0 3.159.107 4.553.331.398.064.785.138 1.162.222a16.869 16.869 0 0 1 1.617.443 12.47 12.47 0 0 1 1.907.805c.691-4.406-.004-7.404-2.387-10.12-2.624-2.989-7.364-4.27-13.428-4.27H9.94c-1.24 0-2.294.902-2.488 2.127L.123 49.09a1.51 1.51 0 0 0 1.493 1.746h10.867l5.663-35.906Z" fill="#fff"/><path fill-rule="evenodd" clip-rule="evenodd" d="M43.36 14.872c-.052.336-.11.678-.18 1.031-2.32 11.92-10.263 16.04-20.407 16.04h-5.166a2.51 2.51 0 0 0-2.479 2.126l-3.395 21.525a1.322 1.322 0 0 0 1.306 1.528h9.16a2.203 2.203 0 0 0 2.176-1.86l.09-.466 1.726-10.943.111-.604a2.203 2.203 0 0 1 2.176-1.86h1.37c8.875 0 15.823-3.606 17.854-14.032.848-4.357.41-7.994-1.834-10.55-.678-.774-1.523-1.413-2.508-1.935Z" fill="#E3E3E3"/><path fill-rule="evenodd" clip-rule="evenodd" d="M40.931 13.904a16.869 16.869 0 0 0-1.095-.28 20.05 20.05 0 0 0-1.162-.222c-1.394-.224-2.918-.332-4.553-.332H20.322a2.2 2.2 0 0 0-2.176 1.86l-2.933 18.596-.085.543a2.51 2.51 0 0 1 2.48-2.126h5.165c10.144 0 18.087-4.12 20.407-16.04.07-.353.128-.695.18-1.031a12.47 12.47 0 0 0-1.907-.805 13.967 13.967 0 0 0-.522-.163Z" fill="#F0F0F0"/></svg>